<svg width="16" height="15" viewBox="0 0 16 15" fill="none" xmlns="http://www.w3.org/2000/svg">
<path d="M12 12.5167H4C2.388 12.5167 1.5 11.7132 1.5 10.2546V4.82576C1.5 3.3672 2.388 2.56372 4 2.56372H12C13.612 2.56372 14.5 3.3672 14.5 4.82576V10.2546C14.5 11.7132 13.612 12.5167 12 12.5167ZM4 3.46854C2.94867 3.46854 2.5 3.8745 2.5 4.82576V10.2546C2.5 11.2059 2.94867 11.6119 4 11.6119H12C13.0513 11.6119 13.5 11.2059 13.5 10.2546V4.82576C13.5 3.8745 13.0513 3.46854 12 3.46854H4ZM8.68604 7.94978L11.9606 5.79511C12.1839 5.64853 12.2333 5.36503 12.0706 5.16296C11.9086 4.96148 11.5967 4.91563 11.3721 5.06342L8.09733 7.21809C8.03866 7.2567 7.96069 7.2567 7.90202 7.21809L4.62728 5.06342C4.40195 4.91563 4.09071 4.96209 3.92871 5.16296C3.76604 5.36503 3.8154 5.64793 4.03874 5.79511L7.31331 7.95038C7.51865 8.0855 7.75935 8.15246 7.99935 8.15246C8.23935 8.15246 8.48137 8.0849 8.68604 7.94978Z" fill="#042FF8"/>
</svg>
