<svg width="16" height="15" viewBox="0 0 16 15" fill="none" xmlns="http://www.w3.org/2000/svg">
<path d="M14.46 4.97636C14.42 4.21028 14.2533 3.22705 13.3466 2.40669C12.44 1.58632 11.3533 1.43552 10.5066 1.39933C9.49998 1.35107 6.50665 1.34504 5.50665 1.39933C4.65998 1.43552 3.57331 1.58029 2.66664 2.40669C1.75998 3.22705 1.5933 4.21028 1.5533 4.97636C1.4933 5.88721 1.4933 8.59562 1.5533 9.50043C1.5933 10.2665 1.75331 11.2497 2.66664 12.0761C3.57998 12.8965 4.66665 13.0473 5.50665 13.0835C6.01332 13.1076 7.0133 13.1197 8.0133 13.1197C9.0133 13.1197 10.0066 13.1076 10.5066 13.0835C11.3533 13.0473 12.44 12.9025 13.3533 12.0761C14.26 11.2558 14.4267 10.2725 14.4667 9.50646C14.5266 8.59561 14.5266 5.89323 14.4667 4.98239L14.46 4.97636ZM13.46 9.45217C13.4066 10.363 13.1666 10.9542 12.6333 11.4307C12.1067 11.9072 11.4533 12.1304 10.4467 12.1726C9.46665 12.2209 6.53998 12.2209 5.54665 12.1726C4.54665 12.1244 3.89332 11.9012 3.35998 11.4247C2.83332 10.9481 2.58664 10.357 2.53997 9.44615C2.48664 8.57752 2.48664 5.8872 2.53997 5.01255C2.59331 4.1017 2.83332 3.51056 3.35998 3.03402C3.88665 2.55749 4.54665 2.3343 5.54665 2.29208C6.03998 2.26795 7.0133 2.25588 7.9933 2.25588C8.9733 2.25588 9.95332 2.26795 10.4467 2.29208C11.4533 2.34033 12.1067 2.55748 12.6333 3.04005C13.16 3.51659 13.4066 4.10774 13.4533 5.01859C13.5066 5.91134 13.5066 8.55942 13.4533 9.45217H13.46ZM7.99998 4.37315C6.25331 4.37315 4.83331 5.65799 4.83331 7.23839C4.83331 8.8188 6.25331 10.1036 7.99998 10.1036C9.74664 10.1036 11.1666 8.8188 11.1666 7.23839C11.1666 5.65799 9.74664 4.37315 7.99998 4.37315ZM7.99998 9.19883C6.80664 9.19883 5.83331 8.31814 5.83331 7.23839C5.83331 6.15865 6.80664 5.27796 7.99998 5.27796C9.19331 5.27796 10.1666 6.15865 10.1666 7.23839C10.1666 8.31814 9.19331 9.19883 7.99998 9.19883ZM12.3466 3.92074C12.3466 4.25251 12.0466 4.52395 11.68 4.52395C11.3133 4.52395 11.0133 4.25251 11.0133 3.92074C11.0133 3.58898 11.3066 3.31753 11.68 3.31753C12.0466 3.31753 12.3466 3.58898 12.3466 3.92074Z" fill="#042FF8"/>
</svg>
