<svg width="16" height="15" viewBox="0 0 16 15" fill="none" xmlns="http://www.w3.org/2000/svg">
<path d="M4.9654 13.121C4.33207 13.121 3.70673 12.9612 3.14607 12.6481C2.31073 12.1818 1.72072 11.4152 1.52872 10.5441C1.40405 9.98193 1.68602 9.40586 2.23135 9.1115L3.99405 8.16083C4.84605 7.70058 5.94934 7.92438 6.50267 8.67176L7.01081 9.3576C8.45081 8.72061 9.63604 7.64569 10.3414 6.33612L9.58747 5.88252C8.76014 5.38487 8.50872 4.38895 9.01472 3.61564L10.0567 2.02317C10.382 1.52734 11.0175 1.27037 11.6435 1.38377C12.6168 1.55991 13.4634 2.09375 13.9794 2.85018C14.4927 3.60298 14.6327 4.48367 14.3767 5.32877C13.248 9.04454 9.99402 11.9876 5.88402 13.0082C5.57935 13.0836 5.2714 13.121 4.9654 13.121ZM4.9501 8.82738C4.7981 8.82738 4.64542 8.86357 4.50609 8.93837L2.74405 9.88904C2.56271 9.98736 2.46801 10.1792 2.50935 10.3668C2.64735 10.9923 3.07146 11.543 3.67146 11.8778C4.26346 12.2084 4.95406 12.3001 5.61872 12.1354C9.38939 11.1986 12.376 8.49863 13.4107 5.08869C13.5934 4.48789 13.4927 3.86175 13.1267 3.32429C12.7567 2.7808 12.1481 2.39776 11.4568 2.2723C11.2394 2.23309 11.0248 2.31815 10.9161 2.48403L9.87409 4.0765C9.63876 4.43541 9.75539 4.89806 10.1394 5.12909L11.2468 5.79565C11.4468 5.91569 11.5234 6.14671 11.4314 6.34637C10.6034 8.14092 8.99671 9.59828 7.02204 10.3451C6.80338 10.4283 6.5468 10.3595 6.41413 10.1798L5.6708 9.17543C5.50547 8.95043 5.23077 8.82738 4.9501 8.82738Z" fill="#042FF8"/>
</svg>
